<mxfile host="app.diagrams.net" modified="2023-10-30T07:48:39.104Z" agent="Mozilla/5.0 (Windows NT 10.0; Win64; x64) AppleWebKit/537.36 (KHTML, like Gecko) Chrome/93.0.4577.63 Safari/537.36 Edg/93.0.961.47" etag="lxUHuMQJFhOHbcJ6yda5" version="22.0.8" type="github">
  <diagram name="第 1 页" id="XRbaMXj0WRN6nQ57Qq_E">
    <mxGraphModel dx="1290" dy="580" grid="1" gridSize="10" guides="1" tooltips="1" connect="1" arrows="1" fold="1" page="1" pageScale="1" pageWidth="827" pageHeight="1169" math="0" shadow="0">
      <root>
        <mxCell id="0" />
        <mxCell id="1" parent="0" />
        <mxCell id="j8RZ7JvYZlwedF4oiyPz-1" style="edgeStyle=orthogonalEdgeStyle;rounded=0;orthogonalLoop=1;jettySize=auto;html=1;entryX=0;entryY=0.5;entryDx=0;entryDy=0;" edge="1" parent="1" source="j8RZ7JvYZlwedF4oiyPz-2" target="j8RZ7JvYZlwedF4oiyPz-4">
          <mxGeometry relative="1" as="geometry" />
        </mxCell>
        <mxCell id="j8RZ7JvYZlwedF4oiyPz-2" value="开始" style="rounded=1;whiteSpace=wrap;html=1;" vertex="1" parent="1">
          <mxGeometry x="360" y="1100" width="120" height="60" as="geometry" />
        </mxCell>
        <mxCell id="j8RZ7JvYZlwedF4oiyPz-3" value="" style="edgeStyle=orthogonalEdgeStyle;rounded=0;orthogonalLoop=1;jettySize=auto;html=1;" edge="1" parent="1" source="j8RZ7JvYZlwedF4oiyPz-4" target="j8RZ7JvYZlwedF4oiyPz-6">
          <mxGeometry relative="1" as="geometry" />
        </mxCell>
        <mxCell id="j8RZ7JvYZlwedF4oiyPz-4" value="选中圆弧移动圆弧半径" style="rounded=0;whiteSpace=wrap;html=1;" vertex="1" parent="1">
          <mxGeometry x="520" y="1100" width="120" height="60" as="geometry" />
        </mxCell>
        <mxCell id="j8RZ7JvYZlwedF4oiyPz-5" value="" style="edgeStyle=orthogonalEdgeStyle;rounded=0;orthogonalLoop=1;jettySize=auto;html=1;" edge="1" parent="1" source="j8RZ7JvYZlwedF4oiyPz-6" target="j8RZ7JvYZlwedF4oiyPz-8">
          <mxGeometry relative="1" as="geometry" />
        </mxCell>
        <mxCell id="j8RZ7JvYZlwedF4oiyPz-6" value="更改圆弧半径" style="whiteSpace=wrap;html=1;rounded=0;" vertex="1" parent="1">
          <mxGeometry x="680" y="1100" width="120" height="60" as="geometry" />
        </mxCell>
        <mxCell id="j8RZ7JvYZlwedF4oiyPz-14" style="edgeStyle=orthogonalEdgeStyle;rounded=0;orthogonalLoop=1;jettySize=auto;html=1;entryX=0.5;entryY=0;entryDx=0;entryDy=0;" edge="1" parent="1" source="j8RZ7JvYZlwedF4oiyPz-8" target="j8RZ7JvYZlwedF4oiyPz-10">
          <mxGeometry relative="1" as="geometry" />
        </mxCell>
        <mxCell id="j8RZ7JvYZlwedF4oiyPz-8" value="更改圆弧非几何数据" style="whiteSpace=wrap;html=1;rounded=0;" vertex="1" parent="1">
          <mxGeometry x="827" y="1100" width="120" height="60" as="geometry" />
        </mxCell>
        <mxCell id="j8RZ7JvYZlwedF4oiyPz-9" style="edgeStyle=orthogonalEdgeStyle;rounded=0;orthogonalLoop=1;jettySize=auto;html=1;entryX=1;entryY=0.5;entryDx=0;entryDy=0;" edge="1" parent="1" source="j8RZ7JvYZlwedF4oiyPz-10" target="j8RZ7JvYZlwedF4oiyPz-12">
          <mxGeometry relative="1" as="geometry">
            <mxPoint x="650" y="1280" as="targetPoint" />
          </mxGeometry>
        </mxCell>
        <mxCell id="j8RZ7JvYZlwedF4oiyPz-10" value="更改圆弧起点、终点几何数据" style="rounded=0;whiteSpace=wrap;html=1;" vertex="1" parent="1">
          <mxGeometry x="827" y="1200" width="120" height="60" as="geometry" />
        </mxCell>
        <mxCell id="j8RZ7JvYZlwedF4oiyPz-11" style="edgeStyle=orthogonalEdgeStyle;rounded=0;orthogonalLoop=1;jettySize=auto;html=1;entryX=1;entryY=0.5;entryDx=0;entryDy=0;" edge="1" parent="1" source="j8RZ7JvYZlwedF4oiyPz-12" target="j8RZ7JvYZlwedF4oiyPz-13">
          <mxGeometry relative="1" as="geometry" />
        </mxCell>
        <mxCell id="j8RZ7JvYZlwedF4oiyPz-12" value="更改圆弧端点图元非几何数据" style="rounded=0;whiteSpace=wrap;html=1;" vertex="1" parent="1">
          <mxGeometry x="680" y="1200" width="120" height="60" as="geometry" />
        </mxCell>
        <mxCell id="j8RZ7JvYZlwedF4oiyPz-13" value="结束" style="rounded=1;whiteSpace=wrap;html=1;" vertex="1" parent="1">
          <mxGeometry x="520" y="1200" width="120" height="60" as="geometry" />
        </mxCell>
      </root>
    </mxGraphModel>
  </diagram>
</mxfile>
